<svg width="100" height="100" viewBox="0 0 100 100" fill="none" xmlns="http://www.w3.org/2000/svg">
<rect width="100" height="100" rx="50" fill="#331436"/>
<path d="M68 49.0001C68.0069 51.6398 67.3901 54.2438 66.2 56.6001C64.7889 59.4235 62.6195 61.7984 59.9349 63.4586C57.2503 65.1188 54.1565 65.9988 51 66.0001C48.3603 66.0069 45.7562 65.3902 43.4 64.2001L32 68.0001L35.8 56.6001C34.6099 54.2438 33.9931 51.6398 34 49.0001C34.0012 45.8436 34.8812 42.7498 36.5414 40.0652C38.2017 37.3806 40.5765 35.2112 43.4 33.8001C45.7562 32.6099 48.3603 31.9932 51 32.0001H52C56.1687 32.23 60.1061 33.9896 63.0583 36.9418C66.0105 39.894 67.77 43.8314 68 48.0001V49.0001Z" stroke="white" stroke-width="4" stroke-linecap="round" stroke-linejoin="round"/>
</svg>
