<svg width="100" height="100" viewBox="0 0 100 100" fill="none" xmlns="http://www.w3.org/2000/svg">
<rect width="100" height="100" rx="50" fill="#331436"/>
<path d="M55.4 38.6C55.0335 38.9738 54.8283 39.4765 54.8283 40C54.8283 40.5235 55.0335 41.0261 55.4 41.4L58.6 44.6C58.9738 44.9664 59.4765 45.1717 60 45.1717C60.5235 45.1717 61.0261 44.9664 61.4 44.6L68.94 37.06C69.9457 39.2823 70.2502 41.7584 69.8129 44.1583C69.3756 46.5581 68.2174 48.7676 66.4925 50.4925C64.7677 52.2174 62.5581 53.3756 60.1583 53.8129C57.7585 54.2501 55.2824 53.9456 53.06 52.94L39.24 66.76C38.4443 67.5556 37.3652 68.0026 36.24 68.0026C35.1148 68.0026 34.0356 67.5556 33.24 66.76C32.4443 65.9643 31.9973 64.8852 31.9973 63.76C31.9973 62.6347 32.4443 61.5556 33.24 60.76L47.06 46.94C46.0543 44.7176 45.7498 42.2415 46.1871 39.8417C46.6243 37.4418 47.7826 35.2323 49.5074 33.5074C51.2323 31.7825 53.4419 30.6243 55.8417 30.187C58.2415 29.7498 60.7176 30.0543 62.94 31.06L55.4 38.6Z" stroke="white" stroke-width="4" stroke-linecap="round" stroke-linejoin="round"/>
</svg>
