<svg width="100" height="100" viewBox="0 0 100 100" fill="none" xmlns="http://www.w3.org/2000/svg">
<rect width="100" height="100" rx="50" fill="#331436"/>
<path d="M44 32H36C34.9391 32 33.9217 32.4214 33.1716 33.1716C32.4214 33.9217 32 34.9391 32 36V44M44 32H64C65.0609 32 66.0783 32.4214 66.8284 33.1716C67.5786 33.9217 68 34.9391 68 36V44M44 32V68M32 44V64C32 65.0609 32.4214 66.0783 33.1716 66.8284C33.9217 67.5786 34.9391 68 36 68H44M32 44H68M68 44V64C68 65.0609 67.5786 66.0783 66.8284 66.8284C66.0783 67.5786 65.0609 68 64 68H44" stroke="white" stroke-width="4" stroke-linecap="round" stroke-linejoin="round"/>
</svg>
